<svg id="noun_Approve_3646217" xmlns="http://www.w3.org/2000/svg" width="22.5" height="30" viewBox="0 0 22.5 30">
  <path id="Path_1" data-name="Path 1" d="M14.232,15.175a.937.937,0,0,1,.218,1.308l-2.679,3.75a.937.937,0,0,1-1.526,0l-1.071-1.5a.937.937,0,1,1,1.526-1.09l.309.432,1.916-2.682A.937.937,0,0,1,14.232,15.175Z" transform="translate(-0.562 -0.937)" fill="#fff"/>
  <path id="Path_2" data-name="Path 2" d="M11.563,11a6.563,6.563,0,1,0,6.563,6.563A6.562,6.562,0,0,0,11.563,11ZM6.875,17.563a4.688,4.688,0,1,1,4.688,4.688A4.688,4.688,0,0,1,6.875,17.563Z" transform="translate(-0.313 -0.688)" fill="#fff"/>
  <path id="Path_3" data-name="Path 3" d="M0,3.75A3.75,3.75,0,0,1,3.75,0H17.813a.937.937,0,0,1,.938.938V5.625h2.813a.937.937,0,0,1,.938.938v22.5a.937.937,0,0,1-.937.938H4.688A4.688,4.688,0,0,1,0,25.313V3.94q0-.032,0-.063Q0,3.814,0,3.75ZM3.747,5.625H16.875V1.875H3.75a1.875,1.875,0,0,0,0,3.75Zm0,1.875a4.607,4.607,0,0,1-1.875-.354V25.313a2.812,2.812,0,0,0,2.813,2.813H20.625V7.5Z" transform="translate(0)" fill="#fff"/>
</svg>
