<svg xmlns="http://www.w3.org/2000/svg" width="18" height="14.395" viewBox="0 0 18 14.395">
  <path id="eye" d="M19.921,10.838C18.1,6.618,14.685,4,11,4S3.889,6.618,2.072,10.838a.9.9,0,0,0,0,.72c1.817,4.22,5.236,6.838,8.925,6.838s7.108-2.618,8.925-6.838A.9.9,0,0,0,19.921,10.838ZM11,16.6c-2.852,0-5.551-2.06-7.108-5.4C5.445,7.86,8.145,5.8,11,5.8s5.551,2.06,7.108,5.4C16.548,14.535,13.849,16.6,11,16.6Zm0-9a3.6,3.6,0,1,0,3.6,3.6A3.6,3.6,0,0,0,11,7.6ZM11,13a1.8,1.8,0,1,1,1.8-1.8A1.8,1.8,0,0,1,11,13Z" transform="translate(-1.997 -4)" fill="#fff" opacity="0.75"/>
</svg>
