<svg xmlns="http://www.w3.org/2000/svg" width="30" height="30" viewBox="0 0 30 30">
  <path id="process" d="M9.492,20.752a1.5,1.5,0,0,0-1.5,1.5v2.673a11.959,11.959,0,0,1-3-7.923,10.936,10.936,0,0,1,.079-1.32,1.5,1.5,0,1,0-2.978-.36,13.76,13.76,0,0,0-.1,1.68,14.946,14.946,0,0,0,3.625,9.75H3.492a1.5,1.5,0,0,0,0,3h6a1.473,1.473,0,0,0,1.191-.633c.017-.023.04-.04.056-.064s.01-.033.02-.048a1.449,1.449,0,0,0,.159-.387,1.428,1.428,0,0,0,.047-.234c0-.046.027-.086.027-.134v-6A1.5,1.5,0,0,0,9.492,20.752ZM11.742,8H9.068a11.961,11.961,0,0,1,7.924-3,10.612,10.612,0,0,1,1.319.079A1.5,1.5,0,1,0,18.673,2.1,13.841,13.841,0,0,0,16.992,2a14.946,14.946,0,0,0-9.75,3.625V3.5a1.5,1.5,0,1,0-3,0v6a1.43,1.43,0,0,0,.059.292v0a1.453,1.453,0,0,0,.212.518l.017.025a1.459,1.459,0,0,0,.367.37c.016.012.025.03.042.042s.046.019.068.032a1.437,1.437,0,0,0,.269.126,1.482,1.482,0,0,0,.393.079c.026,0,.048.015.074.015h6a1.5,1.5,0,1,0,0-3ZM29.682,24.208a1.451,1.451,0,0,0-.212-.518l-.017-.025a1.46,1.46,0,0,0-.367-.37c-.016-.012-.024-.03-.041-.042s-.035-.011-.052-.021a1.73,1.73,0,0,0-.615-.2c-.047,0-.088-.028-.137-.028h-6a1.5,1.5,0,0,0,0,3h2.674a11.96,11.96,0,0,1-7.924,3,10.613,10.613,0,0,1-1.319-.081,1.5,1.5,0,1,0-.362,2.979,14.048,14.048,0,0,0,1.681.1,14.946,14.946,0,0,0,9.75-3.625V30.5a1.5,1.5,0,1,0,3,0v-6a1.43,1.43,0,0,0-.059-.292Zm.809-16.956a1.5,1.5,0,1,0,0-3h-6a1.428,1.428,0,0,0-.288.058l-.01,0a1.453,1.453,0,0,0-.511.209l-.029.02a1.461,1.461,0,0,0-.368.366c-.012.016-.03.024-.041.041s-.011.035-.021.052a1.718,1.718,0,0,0-.2.619c0,.046-.027.086-.027.134v6a1.5,1.5,0,0,0,3,0V9.078a11.963,11.963,0,0,1,3,7.924,10.933,10.933,0,0,1-.079,1.32,1.5,1.5,0,0,0,1.308,1.67A1.544,1.544,0,0,0,30.4,20a1.5,1.5,0,0,0,1.487-1.32,13.76,13.76,0,0,0,.1-1.68,14.946,14.946,0,0,0-3.625-9.75Z" transform="translate(-1.992 -2.002)" fill="#fff"/>
</svg>
