<svg xmlns="http://www.w3.org/2000/svg" width="25.409" height="30.99" viewBox="0 0 25.409 30.99">
  <g id="Group_54" data-name="Group 54" transform="translate(-1178 -188)">
    <path id="file-check-alt" d="M15.054,27.109H6.685A1.4,1.4,0,0,1,5.29,25.714V6.185A1.4,1.4,0,0,1,6.685,4.79H13.66V8.975a4.185,4.185,0,0,0,4.185,4.185h4.185v6.975a1.395,1.395,0,0,0,2.79,0V11.681a1.828,1.828,0,0,0-.084-.377v-.126a1.493,1.493,0,0,0-.265-.391h0L16.1,2.418h0a1.493,1.493,0,0,0-.391-.265.4.4,0,0,0-.139,0A1.534,1.534,0,0,0,15.138,2H6.685A4.185,4.185,0,0,0,2.5,6.185V25.714A4.185,4.185,0,0,0,6.685,29.9h8.37a1.395,1.395,0,1,0,0-2.79ZM16.449,6.757l3.613,3.613H17.844a1.4,1.4,0,0,1-1.395-1.395ZM9.475,18.739h8.37a1.395,1.395,0,1,0,0-2.79H9.475a1.395,1.395,0,0,0,0,2.79Zm5.58,2.79H9.475a1.395,1.395,0,0,0,0,2.79h5.58a1.395,1.395,0,0,0,0-2.79Zm-5.58-8.37H10.87a1.395,1.395,0,0,0,0-2.79H9.475a1.395,1.395,0,1,0,0,2.79Z" transform="translate(1175.5 186)" fill="#fff"/>
    <g id="Group_45" data-name="Group 45" transform="translate(1195.442 211.023)">
      <line id="Line_2" data-name="Line 2" x2="6.977" y2="6.977" fill="none" stroke="#fff" stroke-linecap="round" stroke-width="1.4"/>
      <line id="Line_3" data-name="Line 3" y1="6.977" x2="6.977" fill="none" stroke="#fff" stroke-linecap="round" stroke-width="1.4"/>
    </g>
  </g>
</svg>
