<svg xmlns="http://www.w3.org/2000/svg" viewBox="0 0 477.68 316.39"><defs><style>.cls-1,.cls-2,.cls-3,.cls-4{fill:#e9e8e9;}.cls-1{opacity:0.3;}.cls-3{opacity:0.5;}.cls-4{opacity:0.6;}.cls-5{fill:#141f2d;}.cls-6{fill:#f47859;}.cls-7{fill:#657384;}.cls-8{fill:#384254;}.cls-9{fill:#ec6343;}.cls-10{fill:#c36828;}.cls-11{fill:#f58b1f;}.cls-12{fill:#fff;}.cls-13{fill:#c36928;}.cls-14{fill:#d4d5da;}.cls-15{fill:#066fb8;}.cls-16{fill:#4899d4;}.cls-17{fill:#f79351;}.cls-18{fill:#b6c0c8;}.cls-19{fill:#fcc29b;}</style></defs><g id="Layer_2" data-name="Layer 2"><g id="Layer_1-2" data-name="Layer 1"><path class="cls-1" d="M280.93,226s8.85-25.88,27.52-38.5,34.54-13.32,33.84-7.16-27.31,10.49-39.92,22A179,179,0,0,0,280.93,226Z"/><path class="cls-1" d="M282.79,234s8.06-18.25,22.43-26.24,25.95-7.49,25-3.07-20.51,5.9-30.4,13.48A130.09,130.09,0,0,0,282.79,234Z"/><path class="cls-1" d="M193.15,175.4s-9.83-25.8-29.1-37.88-35.3-12.21-34.38-6,27.91,9.62,41,20.8A179.87,179.87,0,0,1,193.15,175.4Z"/><path class="cls-1" d="M191.56,183.53S182.79,165.4,168,157.84s-26.42-6.64-25.36-2.21,20.89,5.23,31.13,12.53A130.52,130.52,0,0,1,191.56,183.53Z"/><path class="cls-2" d="M106.72,173.73c4.8-13.66,28-7.57,28-7.57s14.17,25.55,18.77,26.48-7.85-24.22-7.85-24.22c9.07-.21,31.19,12.51,31.19,12.51S173.27,209.27,178,209s1.86-25.25,1.86-25.25c8.51,3.25,15.89,14,15.89,14,8.94,17.29-13.73,27.88-13.73,27.88a46.47,46.47,0,0,0,4.25,21.61h0a33.9,33.9,0,0,1,2.36,5.84l-2.37-.17q-.22-1-.51-1.89h0v0c-.13-.38-.33-.92-.57-1.58h0c-.62-1.47-1-2.56-1.29-3.34h0c-1.85-4.61-4.55-10.65-6.55-12a4.65,4.65,0,0,0,.59-1.05l-.59,1.05c-4.7,8.41-25.13,8.36-36.28,5.21s-6-6,.5-10.72,19.15-2.43,23.07-4.18-1.44-4.2-9-4.17-11.92,7.29-24.2,7.56-19.87-23.35-19.87-23.35c8.22,3.23,23.66-.3,24.45-3.16s-21.58-4.22-25-5.35S101.92,187.38,106.72,173.73Z"/><path class="cls-3" d="M193.94,306.86a36.46,36.46,0,0,0,.95,8.21l-43,.05c1-.9,2.25-1.89,3.54-3,5.89-4.93,18.14-3.52,21.78-5.44s-1.64-3.91-8.89-3.41S157.41,311,145.7,312,125.26,291,125.26,291c8.06,2.57,22.58-1.76,23.16-4.54s-20.87-2.69-24.2-3.55-9.13-7.6-5.4-20.94,26.26-9,26.26-9,15.13,23.52,19.58,24.12-9-22.64-9-22.64c8.64-.77,30.56,10,30.56,10s-1.62,27.29,2.84,26.77.2-24.23.2-24.23c8.34,2.58,16.06,12.39,16.06,12.39C214.93,295.34,193.94,306.86,193.94,306.86Z"/><path class="cls-4" d="M372.14,264.54c-4.52,1.71-34.45,4.86-33.21,8.65s22.14,7.61,33,2.79c0,0-8.8,32.12-25.28,32.49s-22.72-9.12-32.9-8.7-17.23,4-11.87,6.12,22.23-1.72,31.19,4.24c1.32.88,2.6,1.7,3.77,2.48.7.47,1.37.93,2,1.37H278.87c0-.48,0-.94,0-1.37a36.83,36.83,0,0,0-.27-4s-31-12.86-20.06-36.58c0,0,9.26-14.86,20.49-19.73,0,0-2.31,33.71,4,33.76s-.13-37.76-.13-37.76S311.79,230,324,229.71c0,0-15.21,34.45-9.1,32.94S338.47,226,338.47,226s30.74-9.53,38,8.5S376.66,262.83,372.14,264.54Z"/><path class="cls-1" d="M337.61,117.91c-3.39-12.54-24.56-8.64-24.56-8.64s-14.39,22-18.57,22.47,8.63-21.17,8.63-21.17c-8.1-.78-28.75,9.13-28.75,9.13s1.29,25.62-2.89,25.09,0-22.74,0-22.74c-7.84,2.35-15.16,11.49-15.16,11.49-9.16,14.9,10.44,25.89,10.44,25.89a41.77,41.77,0,0,1-5.24,19.07h0a30.11,30.11,0,0,0-2.5,5.08h2.13c.18-.57.37-1.12.58-1.66h0v0c.14-.33.35-.8.62-1.37h0c.65-1.27,1.1-2.22,1.37-2.9h0c2-4,4.78-9.24,6.66-10.33a4,4,0,0,1-.46-1l.46,1c3.65,7.84,21.95,9.16,32.14,7.08s5.75-5,.27-9.64-17-3.44-20.38-5.27,1.57-3.66,8.36-3.14S301,163.63,312,164.68s19.35-19.59,19.35-19.59c-7.58,2.35-21.17-1.84-21.69-4.46s19.6-2.34,22.74-3.12S341,130.46,337.61,117.91Z"/><path class="cls-5" d="M186.33,140.84c-.81-1.56,17.69-7.2,18,8.24,0,0,34.67-.85,18.11-20.17-5.73-6.69-5.14-12.23-5-17.38s-3.57-20.11-16.4-18.6a9.55,9.55,0,0,0-7.55.8C184,98.68,162.6,146.53,186.33,140.84Z"/><path class="cls-6" d="M243,158.1s2.26-3.43,4.07-3.5,5.19-1,4.92-.34-2.36.74-2.56,1.15,3.1,1,4,1.07,3.17,0,3.1.48-4,2.42-6.78,2.15a18.85,18.85,0,0,0-6.22.81Z"/><path class="cls-7" d="M210.37,159.21a34.15,34.15,0,0,0,3.45,5.22c2.68,3.36,6.82,7.24,12,8a12.91,12.91,0,0,0,7.13-1.16h0C239.28,168.48,244,162,244,162a5.17,5.17,0,0,0-.71-5.08s-12.73,2.86-13.94,2.25-8.29-21-10-23.54-7.43-3.89-7.43-3.89Z"/><path class="cls-8" d="M213.82,164.43c2.68,3.36,6.82,7.24,12,8a12.91,12.91,0,0,0,7.13-1.16c-.24,0-6.54.81-9.05-3.68s-5.33-11.86-9.13-9.43C213.14,159.21,213.21,161.82,213.82,164.43Z"/><path class="cls-5" d="M162.87,296.65s-3.88,3.54-3.13,6.06,4.27,4.2,4.74,7.28,2.37,4.76,4.08,4.76h8.13s1.25-2.17-1.78-2.82-4.17-4.27-4-7.63a59.49,59.49,0,0,0-.28-7.84L164.2,295Z"/><path class="cls-5" d="M195.75,298.15s-1.39,15,.31,15.86l21.83,0s0-2.52-3.51-3.08-9.66-2.62-10.7-7.19S195.75,298.15,195.75,298.15Z"/><path class="cls-6" d="M180.2,190.4c4.49-10.08,7.24-13,6.71-16.09-.39-2.33,1.19-43.39,1.19-43.39.54-.17,1.6-.31,2.19-.44a5.49,5.49,0,0,0,4-3.48,28.24,28.24,0,0,0,1.36-9.27l.57.11,9.68,1.92s-.22,3-.23,5.91v.07a5.55,5.55,0,0,0,4,5.38l2.28.66a88.21,88.21,0,0,1,4.23,20.56c.68,10.42-6.46,14.95.06,35.77C222.91,209.37,177.72,196,180.2,190.4Z"/><path class="cls-9" d="M205.9,119.76s-.22,3-.23,5.91c-5.41-.15-8.27-5.09-9.45-7.83Z"/><path class="cls-6" d="M207.71,122.48s-12.81.21-12.82-7.77-1.67-13.33,6.51-13.8,9.77,2.57,10.42,5.23S211,122.22,207.71,122.48Z"/><path class="cls-5" d="M207.23,100.72s-3.5,9.36-8.89,10.74-7.71-.06-7.71-.06a15.27,15.27,0,0,0,5-9S204.59,96.26,207.23,100.72Z"/><path class="cls-5" d="M206.36,101.48a8,8,0,0,1,3.67,2.86,13,13,0,0,1,1.74,7.33s2.64-6.36-.33-10C208.29,97.89,206.36,101.48,206.36,101.48Z"/><path class="cls-7" d="M179,149.08a88.41,88.41,0,0,0,0,10.09c.22,3.65,3.91,8.53,4.43,9.74,1.32,3,2.8,3.53,2.8,3.53l11.46,2.81,4,1,12.7-3.79s5.79-16.16,3.47-25.25A70,70,0,0,0,212,131.78s-10.37,10.15-23.87-.86Z"/><path class="cls-8" d="M182.32,160.66c.21,3.65.55,7,1.07,8.25,1.32,3,2.8,3.53,2.8,3.53l11.46,2.81,8.09-1.28s-15.09,1.77-15.75-21.13Z"/><path class="cls-10" d="M213.58,174.89s6.29,19.59,6.69,26.26-12,94.74-12.53,97.81c-.47,2.9-4.06,4.74-4.06,4.74a5.44,5.44,0,0,1-4,.31c-3.28-.92-4.31-2-4.31-2s-4.9-62.81-1.87-85.25a356.14,356.14,0,0,0,3.07-41.84Z"/><path class="cls-11" d="M186.91,174.31s-9.6,12.88-10.49,21.58-1.4,39.29-3.31,47.78-8.91,24.82-8.91,51.3a5.3,5.3,0,0,0,3,2.32,25.93,25.93,0,0,0,2.62.73,4.12,4.12,0,0,0,4.6-2.19c4.74-9.53,19.83-40.29,20.6-46.67.55-4.52,5.31-34.42,15.7-52,2.49-4.22-1.53-21-1.53-21Z"/><path class="cls-5" d="M214.58,171.87s-2.52,2-7.54,2.1c-6,.12-20.85-1.53-20.85-1.53a12.38,12.38,0,0,0-.64,3.79s18.15,4.57,28.66.67A6.66,6.66,0,0,0,214.58,171.87Z"/><path class="cls-12" d="M205.74,176a2.76,2.76,0,1,1,2.73,3.09A2.94,2.94,0,0,1,205.74,176Zm.91,0a1.86,1.86,0,1,0,1.82-2.19A2,2,0,0,0,206.65,176Z"/><path class="cls-6" d="M199.55,189.12a58.4,58.4,0,0,0,4.46,5.63,12.54,12.54,0,0,1,3.18,4.58s0,.53-.52.53-1.63-1.93-2.45-1.62a16.46,16.46,0,0,0,1.66,3.2c.62.65,1,3.9.85,4.61s-4.37-2.66-6.15-4.19c-.94-.82-.51-3.59-.8-5.82-.26-2-4.4-4.31-4.4-4.31Z"/><path class="cls-7" d="M188.1,130.92s-10.14,1-12.58,8.61,1.1,30,4,35.72,13,18.16,19.73,19.68l3.32-2.38s-11.86-21.48-11.86-22.63-.59-22.07-.74-24.28S188.1,130.92,188.1,130.92Z"/><path class="cls-11" d="M246.51,115.51S227.94,148,231.66,159.15s16.19,11.9,16.19,11.9Z"/><path class="cls-13" d="M238.88,154.09s-5.75,2.1-4.3,8.19,6.82,1.31,6.82,1.31l.32-4Z"/><path class="cls-5" d="M236.88,315.19H262.8c1.86-1.26-.5-13.58-.5-13.58s-7.08-2.68-8.3,2.78-9,7.19-13.13,7.85C238.05,312.7,237.16,314.25,236.88,315.19Z"/><path class="cls-5" d="M275.32,315.19h25.92c1.86-1.26-.5-13.58-.5-13.58s-7.07-2.68-8.29,2.78-9,7.19-13.13,7.85C276.5,312.7,275.6,314.25,275.32,315.19Z"/><path class="cls-8" d="M243.85,189.57s1.17,14.53,2.54,32c1.86,23.73,6.88,82.58,6.88,82.58s3.29,2.81,10.58,1.28A231,231,0,0,0,271.91,262l.09-1.14c1.72-23.59,4.41-73.26,4.41-73.26Z"/><path class="cls-5" d="M242.33,182s2.69,22.1,4.06,39.58L271.91,262l.09-1.14c1.72-23.59,4.41-73.26,4.41-73.26Z"/><path class="cls-8" d="M250.89,184.55s18.51,46.07,24.43,63.54c4.22,12.44,16.1,56.08,16.1,56.08s5.17,1.58,9.52-1.47c0,0,4.42-44.58-4.51-57.16-4.74-6.67-.09-73.19-19.3-73.73S250.89,184.55,250.89,184.55Z"/><path class="cls-6" d="M259.16,116.62a11.61,11.61,0,0,0,8,1.08,16.72,16.72,0,0,0,5.4-2.28,16,16,0,0,0,2.18-1.65,4,4,0,0,1-.26-.41c-.83-1.42-3.36-6.56-2.24-14.81a6.21,6.21,0,0,0-2,.34c-3.68.87-11.06,3-11.39,3.06h0s-.09,1.73-.39,4.84c0,.28-.06.56-.09.86s-.07.75-.12,1.15A25.77,25.77,0,0,0,259.16,116.62Z"/><path class="cls-9" d="M258.4,106.79c5.48,1.26,13.66-6.84,13.66-6.84a9,9,0,0,0-1.87-1.06c-3.68.87-11.06,3-11.39,3.06h0S258.7,103.68,258.4,106.79Z"/><path class="cls-11" d="M241,176.79c.4,5.28,1.06,9.87,1.06,9.87,18.11,5.23,46.9-.59,46.51-3.57-.2-1.59-.4-4.14-.5-6.5,0-.15,0-.3,0-.46-.28-6.9-.24-16.41-.27-25.52,0-5.59-.08-11-.27-15.61,0,0,2.56-18-.28-21-3.34-3.45-14.12-4.47-14.31-4.5,0,0-9.34,5.43-14.74.62,0,0-9,2.61-11.63,5.36a24.11,24.11,0,0,0-4.58,13.15c-.14,8.9.21,19,.21,19-.09,1.44-.25,3.31-.42,5.44s-.38,4.82-.55,7.5c-.09,1.34-.17,2.71-.23,4.09A105.4,105.4,0,0,0,241,176.79Z"/><path class="cls-6" d="M256.53,101.51a27.69,27.69,0,0,0,5.13,1.19c4.21.57,9.73.24,11.47-4.85,2.92-8.56,6.66-13.69-1.95-17.19-4.6-1.87-7.55-2-9.55-1.25a6.85,6.85,0,0,0-3.54,3.06C256.41,85.09,253.05,100,256.53,101.51Z"/><path class="cls-5" d="M257.43,77.3c-1.94.47-2.82,3.54-1,4.81,3.31,2.28,7.37,1.39,8.86,2,2.14,1,2.53,4.54,2.56,5.68s.19,2.11,3.1,1.42a1.44,1.44,0,0,1,1.06.07c1.2.71-.34,4.18-.8,4.93,0,0-.67,2.49.81,3.69.18.15,3.1,1.42,10.12-9.33a10,10,0,0,0,.46-9.15,15.62,15.62,0,0,0-13.3-8.2C264.34,73.27,261.55,76.3,257.43,77.3Z"/><path class="cls-9" d="M265.79,170.48s-7,4.58-9.63,4.88c-1.82.2-9-.1-9.07-1-.05-1.28,4.4-2.64,5.56-3.16s2.06-1.11,2-1.61-4.47,1.15-4,.06,4.6-3,5.6-3.16,4.2.91,5.45.33S265.79,170.48,265.79,170.48Z"/><path class="cls-13" d="M262.74,166.46c-.92,1.73,3.05,4,3.05,4s11,5.22,22.24,6.11c0-.15,0-.3,0-.46-.28-6.9.06-27,0-36.13,0,0-2.88,11.11-12.71,17.76C269.1,162,263.4,165.23,262.74,166.46Z"/><path class="cls-11" d="M284.78,112.36s4.76,2,10.41,12.58,11,32.94,8.71,36.58-21.6,12-38.43,9.74c0,0-4.17-3.8-3.33-5.26,0,0,28.22-11.51,28.24-12.88S280.31,139.88,279.74,134,284.78,112.36,284.78,112.36Z"/><path class="cls-6" d="M256.86,139.09s.33,3.62,0,4.56-10,1.15-10.19.27-.61-3.56,0-4S256.86,139.09,256.86,139.09Z"/><path class="cls-6" d="M250.51,172.7h2.16A9.76,9.76,0,0,0,262.4,163v-9.32c0-5.35-.12-10.1-5.87-11.87l-10.11.77c-8.73,2.41-5.63,5.75-5.63,11.1V163A9.75,9.75,0,0,0,250.51,172.7Z"/><path class="cls-6" d="M246.66,142.41a6.43,6.43,0,0,1-4.09-.32c-2.46-1.36-5.4-2.12-5.91-2.74-.87-1-5.11-5.37-5.11-5.37l-2,1.36s2,8,3.55,9.41,4.44,6.48,9.24,7.2C244.79,152.32,246.66,142.41,246.66,142.41Z"/><path class="cls-6" d="M231.55,134s.74-2,.13-2.27-1,1.2-1,1.2-1.6-3.32-3.23-1.89,2,4.32,2,4.32Z"/><path class="cls-6" d="M256.9,141.89a6.46,6.46,0,0,0,4.09-.33c2.45-1.35,5.39-2.11,5.91-2.73.87-1.05,5.11-5.37,5.11-5.37l2,1.36s-2,8-3.55,9.4-4.43,6.49-9.23,7.21C258.77,151.8,256.9,141.89,256.9,141.89Z"/><path class="cls-6" d="M272,133.46s-.75-2-.13-2.27,1,1.2,1,1.2,1.6-3.32,3.23-1.89-2,4.32-2,4.32Z"/><path class="cls-6" d="M242.49,159.15s-5.66,2.48-8.64,3.36c-2.79.82-6.23,2.77-6.3,3.08s-.11,3.08,1.3,3.63,16.72,2.73,19,1.83C247.85,171.05,246.21,160.08,242.49,159.15Z"/><path class="cls-14" d="M227.76,159.85a6.64,6.64,0,0,1,4.29,2.17,1.63,1.63,0,0,0,1.8.49s4.24,2.71,1.54,7.83c0,0-5.72-.36-6.54-1.12S227.76,159.85,227.76,159.85Z"/><path class="cls-15" d="M228.85,169.22a4.69,4.69,0,0,1-3.37-3.54c-.51-2.86,0-5.57,1.9-5.8A3.19,3.19,0,0,1,231,162C231.48,163.38,233,169.35,228.85,169.22Z"/><path class="cls-6" d="M250.82,119.78a8.4,8.4,0,0,0-7.88,5.17c-2.17,5.43-2.6,14.75,2.45,16.22,3.44,1,7.14.3,10.46-1,1.75-.68,2.35-2.15,3.35-3.32C265.64,129.37,263.56,120.45,250.82,119.78Z"/><path class="cls-14" d="M262.4,157.8s-11.21,2.4-21.6,0a20.47,20.47,0,0,0-1.34,2.63c-.33,1.28.26,3.39,2.57,6.07,3.4,3.95,15,6.9,19.08,4.37C264.68,168.66,265.49,161.13,262.4,157.8Z"/><path class="cls-6" d="M249.85,162.58A60.51,60.51,0,0,0,242,166.5c-2.53,1.42-5.46,4.08-5.46,4.41s.58,3,2.07,3.24,16.91-1,18.93-2.41a3.92,3.92,0,0,0,2.64-3.33C260.65,164.53,258.74,159.48,249.85,162.58Z"/><path class="cls-14" d="M235.51,165.26a6.61,6.61,0,0,1,4.66,1.16,1.62,1.62,0,0,0,1.86.08s4.74,1.71,3.23,7.3c0,0-5.65.92-6.62.35S235.51,165.26,235.51,165.26Z"/><path class="cls-16" d="M238.64,174.15a4.68,4.68,0,0,1-4.07-2.7c-1.13-2.68-1.21-5.43.57-6.08a3.18,3.18,0,0,1,4,1.3C239.92,167.88,242.71,173.37,238.64,174.15Z"/><path class="cls-12" d="M248.54,136.11a2.68,2.68,0,0,1-2.66.87,2.8,2.8,0,0,1-1.75-2.14A9.77,9.77,0,0,1,248.54,136.11Z"/><path class="cls-9" d="M255.78,132.66s2.22-1.94,2.92-.54-.91,3.47-2.21,3.5S254.91,133.28,255.78,132.66Z"/><path class="cls-6" d="M255.46,132.58s1.68-1.48,2.22-.41-.69,2.65-1.69,2.67S254.79,133.05,255.46,132.58Z"/><path class="cls-5" d="M257.44,122.63a10.43,10.43,0,0,1-8.49,3.59,5.2,5.2,0,0,1-3.22-1.8,5.7,5.7,0,0,0,2.78.43s-5.43-.83-5.36-2.28,2.91-3.08,5-3.33c1.66-.2,6.66-.17,8.17.66S257.87,122.15,257.44,122.63Z"/><path class="cls-5" d="M255,119.49s6.28,1,7.4,6a11.74,11.74,0,0,1-.5,5s.13-6-4.89-6.21c-3.66-.18-6-.55-6-.55Z"/><path class="cls-17" d="M254.1,149.5a.38.38,0,1,0,.38-.38A.38.38,0,0,0,254.1,149.5Z"/><path class="cls-17" d="M244.66,149.5a.38.38,0,0,0,.75,0,.38.38,0,1,0-.75,0Z"/><path class="cls-9" d="M236.74,156.63a3.88,3.88,0,0,1,2.14-2.54,25.06,25.06,0,0,1,4.11-1.61c1.42-.26,4.31-2,4.54-1.07s-2,1.9-2.05,2.88,6.39,3.35,6.22,4.36a3.93,3.93,0,0,1-4.47,2.67c-2.49-.6-8.65-2-10.07-2.45C236.4,158.66,236.48,157.61,236.74,156.63Z"/><path class="cls-5" d="M215.83,178s-4.85,2-6.49,4.68-3.28,8.11-2.13,10.83-5.71,2.66-4.91,7.34,5.45,2.1,3.4,6.24,3.67,5.52,8.8,4.81,20.31-.78,21-4-5.63-4.7-3.07-7.16,5.24-2,2.39-8.07S229.11,174.68,215.83,178Z"/><path class="cls-9" d="M235.65,249.71S233,268.64,231,285.12c-1.66.29-6.15.86-9.92-.54a4.91,4.91,0,0,0-1.5-.35,26.54,26.54,0,0,1-.28-5.52c.71-6.42-5.76-32.74.2-35.07S235.65,249.71,235.65,249.71Z"/><path class="cls-18" d="M219.62,284.24c1.13,9.12,4.85,23.69,4.85,23.69l4.66.56c-.34-2.58.63-12.44,1.91-23.37-1.65.29-6.15.87-9.91-.55A4.59,4.59,0,0,0,219.62,284.24Z"/><path class="cls-6" d="M228.94,249.77s-3.91,19.42-6.84,36.07a30,30,0,0,1-11.16-.86,34.07,34.07,0,0,1-.06-7.28c1.09-6.33-3.74-33,2.36-35S228.94,249.77,228.94,249.77Z"/><path class="cls-15" d="M229.07,307.67a5.45,5.45,0,0,0,3.21,2.51,5.22,5.22,0,0,1,3.17,2,1.23,1.23,0,0,1-1,2l-10.71-.06a1.53,1.53,0,0,1-1.52-1.7c.08-.79.17-1.72.21-2.43a5.11,5.11,0,0,1,1.77-2.93,11.18,11.18,0,0,0,2,.94A7.47,7.47,0,0,0,229.07,307.67Z"/><path class="cls-9" d="M231.11,204.38s7,11.8,8.41,21.42c0,0-3.4,4.59-4.79,1.37S223.41,206.68,231.11,204.38Z"/><path class="cls-5" d="M229.78,183.43a14.44,14.44,0,0,0-9.06-6.06,8.66,8.66,0,0,0-9.91,7.3c-.74,4.78,0,11,7.81,13.2Z"/><path class="cls-6" d="M228.35,204.72,219.53,210l-2.23-6.21a19.49,19.49,0,0,0,1.32-5.88,24.63,24.63,0,0,0-.14-5.22l7.67,3.33a12.91,12.91,0,0,0-.19,1.72,12.31,12.31,0,0,0,.38,4A5.48,5.48,0,0,0,228.35,204.72Z"/><path class="cls-9" d="M226.34,201.67c-4.23.15-7.72-3.8-7.72-3.8l7.34-.17A12.31,12.31,0,0,0,226.34,201.67Z"/><path class="cls-6" d="M228.24,199.18S220,202,216.62,195.43c-3.6-7-.49-12.52,2.35-13.05,5.66-1.08,9.11.89,10.26,3.12S232.81,197.7,228.24,199.18Z"/><path class="cls-12" d="M224.66,195.63s.4.84,2.59.21c0,0,1.84-.52,1.57-1.49A6.12,6.12,0,0,0,224.66,195.63Z"/><path class="cls-8" d="M207.24,271.93c2.39,2.29,20.07,7,30,3.62,1.78-.61-1.07-55.71-2.78-66.35a6.68,6.68,0,0,0-5.71-5.58c-.49-.07-1-.14-1.61-.19.12,1.31-.32,2.53-2.6,3-3,.59-5.91-1.32-7.38-2.65a28.14,28.14,0,0,0-5.65,1.46,5,5,0,0,0-3,5.24l.57,4.2,1.82,13.39a17.87,17.87,0,0,1,0,5.06c-.77,5.09-2,17.48-2.83,26.91C207.49,266.65,207.12,271.81,207.24,271.93Z"/><path class="cls-5" d="M222.43,183.15s.79,7.77-6.59,10.52c-2.93,1.1-4.45-10.77,1.67-13.14s12.17.44,12.89,4.59.17,5,.17,5S227.71,182.24,222.43,183.15Z"/><path class="cls-6" d="M218,208.57s3.38,13.37,3.51,18.69c0,0,7.42,13,7.85,13.88s-2.67,2.18-2.67,2.18-9.31-9.92-11.11-14.1-8.16-17.73-5.61-21.78S218,208.57,218,208.57Z"/><path class="cls-9" d="M239.52,225.8a23.86,23.86,0,0,1-5.82,16.29s-1.77-2.13-1.54-2.79,2.76-10.82,4.61-12.26S239.52,225.8,239.52,225.8Z"/><path class="cls-6" d="M229.32,241.14s4.15,0,4.38,1a3,3,0,0,1-4.1,3c-3-1.06-2.95-1.73-2.95-1.73Z"/><path class="cls-6" d="M232.16,239.3s-3.34,1.54-2.2,3.18a2.22,2.22,0,0,0,3.74-.39C234.05,241,232.16,239.3,232.16,239.3Z"/><path class="cls-8" d="M220.4,215.63a15.19,15.19,0,0,1-11.06,3.42s-3.31-11.72,2-13.16S221,211.4,220.4,215.63Z"/><path class="cls-8" d="M233.4,206.45l3.83,6.55s-.49,3.05-3.36,3.35S233.4,206.45,233.4,206.45Z"/><path class="cls-14" d="M211,285c.79,9.3,3.31,22.59,3.31,22.59l4.61,1.06c-.18-2.54,1.33-12.11,3.22-22.81A29.4,29.4,0,0,1,211,285Z"/><path class="cls-16" d="M219,307.57a5.45,5.45,0,0,0,3.21,2.5,5.34,5.34,0,0,1,3.17,2,1.24,1.24,0,0,1-1,2L213.66,314a1.54,1.54,0,0,1-1.52-1.7c.08-.8.17-1.72.21-2.43a5.11,5.11,0,0,1,1.76-2.93,11,11,0,0,0,2,.94A7.7,7.7,0,0,0,219,307.57Z"/><path class="cls-6" d="M313.56,13a68,68,0,0,1,22.22,17.22c6.55,7.59,15.6,21.12,28.35,35.4,9.19,10.29,14.63,16.29,17.66,19.6a24.74,24.74,0,0,0,7.62,5.64l56.16,26.81-4.42,23-3.73,22-.37,2.17-1.93-1.06c-4.73-2.62-28.52-17.52-40.38-25.08l-.1.5h0l0,0h0a11.67,11.67,0,0,0-1.44-1h0c-3.29-2-12.85-6.85-37.33-13.29h0c-2.84-.75-5.87-1.52-9.12-2.31-15-3.65-27.95-2.65-17.44-43.69a1.88,1.88,0,0,0-.06-.56,28.31,28.31,0,0,0-2.86-8.92c-.35-.74-.75-1.52-1.19-2.35a86.43,86.43,0,0,1-6-13.73C311.92,31.54,309.49,11,313.56,13Z"/><path class="cls-9" d="M355.79,124.93c24.48,6.44,34,11.26,37.33,13.29,0,0,35.77,22.19,42,25.64l19.09-9.25-13.06-13.88L435,144.56c-.55.08-24.76-11.68-38.61-13.91-4.34-.71-9-1.63-13.25-2.15C371.52,127.08,361.27,126.21,355.79,124.93Z"/><path class="cls-6" d="M285.94,2.62C278.74,1.38,255.28.49,255.28.49s-.12,5.16,2.7,7.8c8.22,7.74,27.62,11,27.8,10.79,0,0,15,13,25.63,17.36h0s6.9,25.84,14.88,33a10.91,10.91,0,0,0,1.47,1.11,28.28,28.28,0,0,0,7.84,3c11.24,2.8,27.5,2.62,28-3.94.12-1.62-32.94-49-40.06-52.48C321.86,16.33,289.78,3.29,285.94,2.62Z"/><path class="cls-19" d="M265.94,4.42a4.45,4.45,0,0,1-1.46.06l-7.69-1A4.35,4.35,0,0,1,253.2.62c-.07-.53,8.75-1.31,16.35.58A4.54,4.54,0,0,1,265.94,4.42Z"/><path class="cls-9" d="M311.41,36.44c.39,5.28,13.74,40.4,14,42.17,3.95,5,11.08,7.54,12.37,6,1.76-2.14,1-8.15-1.56-12.69-3.41-6.09-9.23-9.13-12.3-11.49-1.37-1.06-2.49-6-4.32-8.18C314.75,46.35,311.72,37.11,311.41,36.44Z"/><path class="cls-6" d="M316.63,98.26S294.15,51.2,287,44.76c0,0,4.39-6.08,14.52-.51s24.59,29.6,32,32.76C361.23,88.87,366,106.73,366,106.73S338.84,144.64,316.63,98.26Z"/><path class="cls-19" d="M298.41,50.42a4.7,4.7,0,0,0-.81-1.2l-5.35-5.62a4.42,4.42,0,0,0-5.69-.61c-.44.3-.67.49-.67.49A40.79,40.79,0,0,0,296,56.73C297.12,55.37,299.13,52,298.41,50.42Z"/><path class="cls-11" d="M477.68,113.31c-2.18,44.26-14.85,70.2-24.45,89.33-16.23-4.87-30.24-9-30.3-9l-.37-.12c-.62-.17-1.28-.34-2-.5l-.64-.13-.81-.15c-.27-.05-.52-.09-.79-.12l-.69-.1-.23,0-.82-.09a38.48,38.48,0,0,1-8.68-1.76h0l-.53-.2h0c-5.09-1.92-5.92-4.34-5.92-4.34-4.18-5-5.92-12.46-6.06-20.93a96.91,96.91,0,0,1,2-19.48c.28-1.42.58-2.84.9-4.25a2.66,2.66,0,0,1,.08-.33c.73-3.21,1.57-6.39,2.48-9.47a153.91,153.91,0,0,1,5.82-16.25,67.17,67.17,0,0,1,6.9-12.94c1.15-1.52,2.17-2.46,3-2.68,2.81-.75,5.63,0,8.8,1.34h0c2.27.92,4.73,2.12,7.49,3.19l.51.19a7.66,7.66,0,0,0,.72.27l.73.26c.49.17,1,.33,1.51.49l1.53.43.55.13.55.13c.36.09.74.16,1.11.24l.44.08.7.12.41.06S458.36,109.76,477.68,113.31Z"/><path class="cls-6" d="M159,13.56A68,68,0,0,0,136.91,31c-6.46,7.65-15.39,21.27-28,35.66C99.82,77,94.43,83.08,91.43,86.42a24.87,24.87,0,0,1-7.56,5.71L28,119.48l4.64,23,3.95,22,.39,2.17,1.92-1.07c4.7-2.67,28.35-17.8,40.14-25.47l.1.49h0l.05,0h0a10.9,10.9,0,0,1,1.44-1l0,0c3.27-2.06,12.79-7,37.2-13.64h0c2.83-.78,5.85-1.58,9.1-2.39,15-3.8,27.92-2.92,17-43.86A1.88,1.88,0,0,1,144,79a28.14,28.14,0,0,1,2.77-9c.35-.74.73-1.53,1.17-2.36a85.56,85.56,0,0,0,5.84-13.79C160.79,32,163,11.45,159,13.56Z"/><path class="cls-9" d="M117.81,125.85c-24.41,6.67-33.93,11.58-37.2,13.64h0l0,0-.13.08,0,0-1.3.82-3.54,2.24c-9.33,5.9-28.88,18.22-35.42,22.1l-.17.1-.16.09-.08,0-.22.13-.63.37-2.31-1.1-9.89-4.67q.8-6.14,1.13-12.1l4.81-5.21,6.24,3.78c.48.06,20.06-9.65,34-13.31,1.55-.41,3-.74,4.42-1,4.34-.74,9-1.71,13.24-2.27C102.1,128.15,112.34,127.18,117.81,125.85Z"/><path class="cls-6" d="M186.5,2.88C193.69,1.57,217.13.46,217.13.46s.17,5.16-2.62,7.83c-8.15,7.81-27.52,11.29-27.7,11.05,0,0-14.83,13.14-25.47,17.6h0s-6.64,25.9-14.56,33.15a11,11,0,0,1-1.45,1.13,28.47,28.47,0,0,1-7.82,3.08c-11.21,2.91-27.47,2.88-28-3.68C109.34,69,142,21.31,149,17.77,150.71,16.93,182.66,3.58,186.5,2.88Z"/><path class="cls-19" d="M206.51,4.49a4.4,4.4,0,0,0,1.45,0l7.69-1.06A4.32,4.32,0,0,0,219.21.56c.07-.52-8.76-1.22-16.34.74A4.54,4.54,0,0,0,206.51,4.49Z"/><path class="cls-9" d="M161.34,36.94C161,42.23,148,77.47,147.78,79.24c-3.9,5-11,7.65-12.32,6.07-1.77-2.12-1.06-8.14,1.44-12.7,3.36-6.13,9.15-9.22,12.19-11.61,1.37-1.08,2.43-6,4.25-8.22C158.1,46.88,161,37.62,161.34,36.94Z"/><path class="cls-6" d="M156.72,98.81s22-47.27,29.14-53.78c0,0-4.45-6-14.53-.38S147,74.49,139.67,77.72c-27.64,12.12-32.22,30-32.22,30S134.94,145.4,156.72,98.81Z"/><path class="cls-19" d="M174.48,50.8a4.46,4.46,0,0,1,.8-1.21s3.05-3.28,5.29-5.67a4.43,4.43,0,0,1,5.69-.67c.44.3.67.48.67.48a40.77,40.77,0,0,1-10,13.35C175.81,55.74,173.77,52.37,174.48,50.8Z"/><path class="cls-11" d="M78.62,166.41c-.05,8.46-1.72,15.94-5.86,21,0,0-.8,2.43-5.88,4.4h0l-.52.2h0a38.71,38.71,0,0,1-8.66,1.85l-.82.09-.24,0-.68.1-.79.13-.81.16-.64.14c-.7.16-1.36.33-2,.52l-.38.12c-.07,0-19.85,6.11-39.62,12.25,8.72-16.82-11.24-80-11.7-92.24,2.8-.55,31.88-6.78,31.89-6.78l.41-.07c.24,0,.47-.08.7-.12l.44-.09c.36-.08.74-.15,1.1-.25l.56-.13.54-.14q.78-.21,1.53-.45c.51-.16,1-.33,1.5-.5l.73-.26c.25-.09.49-.18.72-.28l.51-.19c2.75-1.1,5.19-2.32,7.45-3.27h0c3.15-1.32,6-2.14,8.79-1.42.82.21,1.84,1.14,3,2.65a66.57,66.57,0,0,1,7,12.87,153.29,153.29,0,0,1,6,16.2c.94,3.07,1.82,6.23,2.58,9.43,0,.11.06.23.08.34.33,1.41.65,2.83.94,4.24A96,96,0,0,1,78.62,166.41Z"/><rect class="cls-8" x="29.1" y="313.98" width="407.78" height="2.41" rx="1.13"/></g></g></svg>