<svg xmlns="http://www.w3.org/2000/svg" width="23.998" height="24" viewBox="0 0 23.998 24">
  <path id="pen" d="M26,8.288a1.2,1.2,0,0,0-.348-.852L20.563,2.348a1.217,1.217,0,0,0-1.7,0l-3.4,3.4h0L2.348,18.859A1.2,1.2,0,0,0,2,19.711V24.8A1.2,1.2,0,0,0,3.2,26H8.288A1.2,1.2,0,0,0,9.2,25.65L22.242,12.535h0L25.65,9.2a1.428,1.428,0,0,0,.264-.4,1.2,1.2,0,0,0,0-.288.84.84,0,0,0,0-.168ZM7.8,23.6H4.4V20.2L16.315,8.288l3.4,3.4ZM21.4,9.991l-3.4-3.4,1.7-1.692,3.384,3.384Z" transform="translate(-2 -2)" fill="#232323"/>
</svg>
