<svg xmlns="http://www.w3.org/2000/svg" width="22.1" height="18" viewBox="0 0 22.1 18">
  <path id="book-open" d="M23.182,2.08a14.475,14.475,0,0,0-2.4-.21A14.3,14.3,0,0,0,13.05,4.135a14.3,14.3,0,0,0-7.735-2.21,14.475,14.475,0,0,0-2.4.21A1.1,1.1,0,0,0,2,3.24V16.5a1.1,1.1,0,0,0,1.293,1.1,12.044,12.044,0,0,1,9.116,2.11l.133.077h.122a1.006,1.006,0,0,0,.773,0h.122l.133-.077a12.044,12.044,0,0,1,9.116-2.232,1.1,1.1,0,0,0,1.293-1.1V3.119a1.1,1.1,0,0,0-.917-1.039ZM11.945,16.765a14.221,14.221,0,0,0-6.63-1.635H4.21V4.08a9.6,9.6,0,0,1,1.1,0,12,12,0,0,1,6.63,1.989Zm9.945-1.591h-1.1a14.221,14.221,0,0,0-6.63,1.635V6.069a12,12,0,0,1,6.63-1.989,9.6,9.6,0,0,1,1.1,0Z" transform="translate(-2 -1.87)" fill="#fff" opacity="0.8"/>
</svg>
