<svg xmlns="http://www.w3.org/2000/svg" width="19.59" height="18" viewBox="0 0 19.59 18">
  <g id="noun_claim_944814" transform="translate(-6.978 -9)">
    <g id="Group_68" data-name="Group 68" transform="translate(6.978 9)">
      <path id="Path_34" data-name="Path 34" d="M26.454,26.316a13.6,13.6,0,0,0-9.293-4V14.478h5.87a.391.391,0,0,0,.326-.608l-1.42-2.131,1.42-2.131A.391.391,0,0,0,23.03,9H16.769a.391.391,0,0,0-.391.391V22.314a13.6,13.6,0,0,0-9.293,4,.412.412,0,0,0,.014.568A.393.393,0,0,0,7.378,27H26.161a.446.446,0,0,0,.293-.131A.391.391,0,0,0,26.454,26.316Z" transform="translate(-6.978 -9)" fill="#fff"/>
    </g>
  </g>
</svg>
