<svg xmlns="http://www.w3.org/2000/svg" width="18" height="22.5" viewBox="0 0 18 22.5">
  <path id="document-info" d="M13,15.5a1.125,1.125,0,0,0-1.125,1.125v2.25a1.125,1.125,0,0,0,2.25,0v-2.25A1.125,1.125,0,0,0,13,15.5Zm.427-3.285a1.125,1.125,0,0,0-.652-.09l-.2.068-.2.1-.169.135a1.122,1.122,0,0,0,.371,1.856.945.945,0,0,0,.427.09,1.13,1.13,0,0,0,.8-1.924,1.294,1.294,0,0,0-.371-.236ZM22,9.807a1.474,1.474,0,0,0-.067-.3V9.4a1.2,1.2,0,0,0-.214-.315h0l-6.75-6.75h0a1.2,1.2,0,0,0-.315-.214h-.112A1.238,1.238,0,0,0,14.193,2H7.375A3.375,3.375,0,0,0,4,5.375v15.75A3.375,3.375,0,0,0,7.375,24.5h11.25A3.375,3.375,0,0,0,22,21.125V9.807ZM15.25,5.836,18.164,8.75H16.375A1.125,1.125,0,0,1,15.25,7.625Zm4.5,15.289a1.125,1.125,0,0,1-1.125,1.125H7.375A1.125,1.125,0,0,1,6.25,21.125V5.375A1.125,1.125,0,0,1,7.375,4.25H13V7.625A3.375,3.375,0,0,0,16.375,11H19.75Z" transform="translate(-4 -2)" fill="#fff"/>
</svg>
