<svg  xmlns="http://www.w3.org/2000/svg" width="26.119" height="30" viewBox="0 0 26.119 30">
  <g id="noun_draft_3322783" transform="translate(-11.54 -8.5)">
    <g id="Group_42" data-name="Group 42" transform="translate(11.54 8.5)">
      <path id="Path_6" data-name="Path 6" d="M37.64,16.207a.941.941,0,0,0-.036-.121c-.007-.019-.01-.04-.019-.058a.966.966,0,0,0-.064-.122c-.008-.014-.015-.029-.024-.043a.947.947,0,0,0-.118-.144L30.44,8.78a.947.947,0,0,0-.144-.118c-.013-.009-.029-.015-.043-.024a.966.966,0,0,0-.122-.064c-.019-.008-.039-.011-.058-.019a.825.825,0,0,0-.31-.056H15.051a3.515,3.515,0,0,0-3.511,3.511V34.989A3.515,3.515,0,0,0,15.051,38.5h19.1a3.515,3.515,0,0,0,3.511-3.511V16.4a.934.934,0,0,0-.019-.189Zm-6.919-4.438,3.67,3.67H32.317a1.6,1.6,0,0,1-1.6-1.6Zm3.428,24.816h-19.1a1.6,1.6,0,0,1-1.6-1.6V12.011a1.6,1.6,0,0,1,1.6-1.6H28.806v3.428a3.515,3.515,0,0,0,3.511,3.511h3.428V34.989A1.6,1.6,0,0,1,34.148,36.585Z" transform="translate(-11.54 -8.5)" fill="#fff"/>
    </g>
  </g>

</svg>
