<svg xmlns="http://www.w3.org/2000/svg" width="26" height="25.978" viewBox="0 0 26 25.978">
  <g id="Icon_ionic-ios-rocket" data-name="Icon ionic-ios-rocket" transform="translate(-3.366 -3.372)">
    <path id="Path_16" data-name="Path 16" d="M29.229,3.725a.276.276,0,0,0-.206-.212C25.624,2.681,17.77,5.643,13.515,9.9a18.392,18.392,0,0,0-2.068,2.443,7.7,7.7,0,0,0-3.743.469C4.549,14.2,3.63,17.82,3.374,19.376a.56.56,0,0,0,.612.65l5.067-.556a11.265,11.265,0,0,0,.069,1.143,1.134,1.134,0,0,0,.331.694l1.962,1.962a1.134,1.134,0,0,0,.694.331,11.243,11.243,0,0,0,1.137.069L12.69,28.73a.56.56,0,0,0,.65.612c1.556-.25,5.186-1.168,6.567-4.324a7.73,7.73,0,0,0,.475-3.73,18.422,18.422,0,0,0,2.449-2.068C27.1,14.971,30.047,7.292,29.229,3.725Zm-10.2,9.991a2.669,2.669,0,1,1,3.774,0A2.666,2.666,0,0,1,19.032,13.715Z" fill="#fff"/>
    <path id="Path_17" data-name="Path 17" d="M11.548,26.374h0a2.37,2.37,0,0,1-1.237.5,1.682,1.682,0,0,1-1.937-1.937,2.324,2.324,0,0,1,.494-1.231l.006-.006a.209.209,0,0,0-.175-.356,2.872,2.872,0,0,0-1.681.819c-1.125,1.125-1.231,5.3-1.231,5.3s4.18-.106,5.3-1.231a2.853,2.853,0,0,0,.819-1.681A.214.214,0,0,0,11.548,26.374Z" transform="translate(-0.27 -2.224)" fill="#fff"/>
  </g>
</svg>
