<svg xmlns="http://www.w3.org/2000/svg" width="27" height="30" viewBox="0 0 27 30">
  <g id="Group_50" data-name="Group 50" transform="translate(-3 -2)">
    <path id="Path_15" data-name="Path 15" d="M27.75,4.25,25.5,2,23.25,4.25,21,2,18.75,4.25,16.5,2,14.25,4.25,12,2,9.75,4.25,7.5,2V23H3v4.5A4.494,4.494,0,0,0,7.5,32h18A4.494,4.494,0,0,0,30,27.5V2ZM21,29H7.5A1.5,1.5,0,0,1,6,27.5V26H21Zm6-1.5a1.5,1.5,0,0,1-3,0V23H10.5V6.5H27Z" fill="#fff"/>
    <rect id="Rectangle_69" data-name="Rectangle 69" width="9" height="3" transform="translate(12 9.5)" fill="#fff"/>
    <rect id="Rectangle_70" data-name="Rectangle 70" width="3" height="3" transform="translate(22.5 9.5)" fill="#fff"/>
    <rect id="Rectangle_71" data-name="Rectangle 71" width="9" height="3" transform="translate(12 14)" fill="#fff"/>
    <rect id="Rectangle_72" data-name="Rectangle 72" width="3" height="3" transform="translate(22.5 14)" fill="#fff"/>
  </g>
</svg>
