<svg xmlns="http://www.w3.org/2000/svg" width="25.1" height="30" viewBox="0 0 25.1 30">
  <g id="noun_query_3407971" transform="translate(-10.3 -2.5)">
    <g id="Group_43" data-name="Group 43" transform="translate(10.3 2.5)">
      <path id="Path_8" data-name="Path 8" d="M31.038,2.5H14.662A4.371,4.371,0,0,0,10.3,6.862V22.1a4.371,4.371,0,0,0,4.362,4.362h2.972L21.68,31.9a1.439,1.439,0,0,0,2.339,0l4.046-5.437h2.972A4.371,4.371,0,0,0,35.4,22.1V6.862A4.371,4.371,0,0,0,31.038,2.5Zm1.454,19.6a1.471,1.471,0,0,1-1.454,1.454h-3.73a1.438,1.438,0,0,0-1.17.6L22.85,28.612l-3.288-4.457a1.438,1.438,0,0,0-1.17-.6h-3.73A1.471,1.471,0,0,1,13.208,22.1V6.862a1.471,1.471,0,0,1,1.454-1.454H31.038a1.471,1.471,0,0,1,1.454,1.454Z" transform="translate(-10.3 -2.5)" fill="#fff"/>
      <path id="Path_9" data-name="Path 9" d="M40.589,19.2A4.186,4.186,0,0,0,36.1,23.246v.032a.668.668,0,0,0,.664.664h1.454a.668.668,0,0,0,.664-.664v-.032c0-.126.063-1.264,1.739-1.264.917,0,1.549.221,1.549,1.328,0,.664-.98,1.486-1.517,1.9a3.514,3.514,0,0,0-1.644,3v.379a.668.668,0,0,0,.664.664h1.454a.668.668,0,0,0,.664-.664v-.379c0-.285,0-.348.632-.854.885-.727,2.529-2.055,2.529-4.015A4,4,0,0,0,40.589,19.2Z" transform="translate(-27.944 -13.921)" fill="#fff"/>
      <path id="Path_10" data-name="Path 10" d="M47.218,56H45.764a.668.668,0,0,0-.664.664v1.17a.668.668,0,0,0,.664.664h1.454a.668.668,0,0,0,.664-.664v-1.17A.668.668,0,0,0,47.218,56Z" transform="translate(-34.099 -39.087)" fill="#fff"/>
    </g>
  </g>
</svg>
