<svg xmlns="http://www.w3.org/2000/svg" width="15.739" height="18" viewBox="0 0 15.739 18">
  <path id="paperclip" d="M16.8,11.549,11.138,17.22a3.894,3.894,0,0,1-5.5-5.5l7.33-7.33a2.355,2.355,0,0,1,3.243,0,2.309,2.309,0,0,1,0,3.243L9.892,13.949A.7.7,0,1,1,8.866,13l4.7-4.691a.92.92,0,0,0-1.3-1.3l-4.7,4.709a2.51,2.51,0,0,0,0,3.564,2.584,2.584,0,0,0,3.564,0l6.313-6.322a4.123,4.123,0,0,0-5.827-5.827l-7.33,7.33a5.726,5.726,0,0,0,8.145,8.035L18.1,12.831a.92.92,0,0,0-1.3-1.3Z" transform="translate(-2.809 -2.022)" fill="#fff" opacity="0.7"/>
</svg>
