<svg xmlns="http://www.w3.org/2000/svg" width="19.636" height="18" viewBox="0 0 19.636 18">
  <g id="Group_81" data-name="Group 81" transform="translate(-2.462 -6.446)">
    <path id="Path_41" data-name="Path 41" d="M13.54,6.457a8.984,8.984,0,0,0-9.4,8.55H3.09a.626.626,0,0,0-.537.95L4.742,19.53a.637.637,0,0,0,1.074,0l2.189-3.573a.626.626,0,0,0-.537-.95H6.27A6.847,6.847,0,0,1,13.4,8.563a6.881,6.881,0,0,1-.31,13.755A6.843,6.843,0,0,1,8.769,20.79a.394.394,0,0,0-.558.041l-.867.971a.408.408,0,0,0,.041.6,9,9,0,0,0,14.7-7.332A9.105,9.105,0,0,0,13.54,6.457Z" transform="translate(0)" fill="#fff"/>
    <path id="Path_42" data-name="Path 42" d="M43.787,25.3h-.929a.326.326,0,0,0-.33.33v.826l-.1.021a2.415,2.415,0,0,0-1.859,2.582,2.483,2.483,0,0,0,2.478,2.169h.62a.768.768,0,0,1,.578.268.82.82,0,0,1,.207.6.833.833,0,0,1-.847.7h-.826a.527.527,0,0,1-.5-.392.335.335,0,0,0-.33-.248H41a.342.342,0,0,0-.248.1.361.361,0,0,0-.083.248A2.126,2.126,0,0,0,42.4,34.367l.083.021v.805a.326.326,0,0,0,.33.33h.929a.326.326,0,0,0,.33-.33v-.867l.083-.021A2.384,2.384,0,0,0,45.4,30.36a2.408,2.408,0,0,0-1.776-.785H42.9a.768.768,0,0,1-.578-.268.788.788,0,0,1,.64-1.322h.826a.527.527,0,0,1,.5.392.353.353,0,0,0,.33.268h.95a.342.342,0,0,0,.248-.1.284.284,0,0,0,.083-.248,2.126,2.126,0,0,0-1.735-1.859l-.083-.021V25.61A.266.266,0,0,0,43.787,25.3Z" transform="translate(-30.226 -14.96)" fill="#fff"/>
  </g>
</svg>
