<svg xmlns="http://www.w3.org/2000/svg" width="32.726" height="30" viewBox="0 0 32.726 30">
  <g id="Group_70" data-name="Group 70" transform="translate(-2.462 -6.446)">
    <path id="Path_41" data-name="Path 41" d="M20.925,6.464A14.974,14.974,0,0,0,5.264,20.715H3.508A1.044,1.044,0,0,0,2.613,22.3l3.649,5.955a1.062,1.062,0,0,0,1.79,0L11.7,22.3a1.044,1.044,0,0,0-.895-1.583h-2A11.411,11.411,0,0,1,20.684,9.975,11.468,11.468,0,0,1,20.168,32.9a11.4,11.4,0,0,1-7.194-2.547.656.656,0,0,0-.929.069L10.6,32.04a.679.679,0,0,0,.069,1,15,15,0,0,0,24.508-12.22A15.176,15.176,0,0,0,20.925,6.464Z" transform="translate(0 0)" fill="#fff"/>
    <path id="Path_42" data-name="Path 42" d="M45.941,25.3H44.392a.544.544,0,0,0-.551.551v1.377l-.172.034a4.025,4.025,0,0,0-3.1,4.3A4.138,4.138,0,0,0,44.7,35.179h1.033a1.281,1.281,0,0,1,.964.447,1.367,1.367,0,0,1,.344,1,1.388,1.388,0,0,1-1.411,1.17H44.254a.879.879,0,0,1-.826-.654.558.558,0,0,0-.551-.413H41.294a.57.57,0,0,0-.413.172.6.6,0,0,0-.138.413,3.543,3.543,0,0,0,2.891,3.1l.138.034v1.342a.544.544,0,0,0,.551.551h1.549a.544.544,0,0,0,.551-.551V40.342l.138-.034a3.973,3.973,0,0,0,2.065-6.575,4.013,4.013,0,0,0-2.96-1.308h-1.2a1.281,1.281,0,0,1-.964-.447,1.313,1.313,0,0,1,1.067-2.2h1.377a.879.879,0,0,1,.826.654.589.589,0,0,0,.551.447H48.9a.57.57,0,0,0,.413-.172.473.473,0,0,0,.138-.413,3.543,3.543,0,0,0-2.891-3.1l-.138-.034V25.816A.444.444,0,0,0,45.941,25.3Z" transform="translate(-24.981 -12.364)" fill="#fff"/>
  </g>
</svg>
