<?xml version="1.0" ?><svg id="Icons" viewBox="0 0 24 24" xmlns="http://www.w3.org/2000/svg"><title/><path d="M2.109,7.566a.844.844,0,0,0-.041.1.979.979,0,0,0-.059.292C2.008,7.971,2,7.984,2,8l0,.013a.971.971,0,0,0,.069.343c.012.031.029.058.043.088a.975.975,0,0,0,.063.125l9,13a1,1,0,0,0,1.644,0l9-13a.975.975,0,0,0,.063-.125.9.9,0,0,0,.043-.088A.971.971,0,0,0,22,8.013L22,8c0-.016-.008-.029-.009-.044a.985.985,0,0,0-.059-.292.844.844,0,0,0-.041-.1.816.816,0,0,0-.034-.081l-3-5A1,1,0,0,0,18,2H6a1,1,0,0,0-.857.485l-3,5A.816.816,0,0,0,2.109,7.566ZM12,19.243,4.908,9H19.092ZM6.566,4H17.434l1.8,3H4.766Z"/></svg>