<svg xmlns="http://www.w3.org/2000/svg" width="14" height="14" viewBox="0 0 14 14">
  <path id="print" d="M5.5,7.6a.7.7,0,1,0,.7.7A.7.7,0,0,0,5.5,7.6Zm8.4-2.8h-.7V2.7a.7.7,0,0,0-.7-.7h-7a.7.7,0,0,0-.7.7V4.8H4.1A2.1,2.1,0,0,0,2,6.9v4.2a2.1,2.1,0,0,0,2.1,2.1h.7v2.1a.7.7,0,0,0,.7.7h7a.7.7,0,0,0,.7-.7V13.2h.7A2.1,2.1,0,0,0,16,11.1V6.9A2.1,2.1,0,0,0,13.9,4.8ZM6.2,3.4h5.6V4.8H6.2Zm5.6,11.2H6.2V11.8h5.6Zm2.8-3.5a.7.7,0,0,1-.7.7h-.7v-.7a.7.7,0,0,0-.7-.7h-7a.7.7,0,0,0-.7.7v.7H4.1a.7.7,0,0,1-.7-.7V6.9a.7.7,0,0,1,.7-.7h9.8a.7.7,0,0,1,.7.7Z" transform="translate(-2 -2)" fill="#fff"/>
</svg>
