<svg xmlns="http://www.w3.org/2000/svg" width="40" height="40" viewBox="0 0 40 40">
  <g id="Group_55" data-name="Group 55" transform="translate(-633 -131)">
    <rect id="Rectangle_105" data-name="Rectangle 105" width="40" height="40" rx="10" transform="translate(633 131)" fill="#fff"/>
    <path id="pen" d="M20,6.716a.9.9,0,0,0-.261-.639L15.922,2.261a.913.913,0,0,0-1.278,0L12.1,4.808h0L2.261,14.644A.9.9,0,0,0,2,15.283V19.1a.9.9,0,0,0,.9.9H6.716a.9.9,0,0,0,.684-.261L17.182,9.9h0l2.556-2.5a1.071,1.071,0,0,0,.2-.3.9.9,0,0,0,0-.216.63.63,0,0,0,0-.126ZM6.347,18.2H3.8V15.652l8.936-8.936,2.547,2.547ZM16.552,7.994,14.005,5.447l1.278-1.269,2.538,2.538Z" transform="translate(642 140)" fill="#232323"/>
  </g>
</svg>
