<svg xmlns="http://www.w3.org/2000/svg" width="11.997" height="11.997" viewBox="0 0 11.997 11.997">
  <path id="Icon_metro-warning" data-name="Icon metro-warning" d="M7,1.837l5.027,10.019H1.971L7,1.837ZM7,.75a.867.867,0,0,0-.713.523L1.164,11.478c-.392.7-.059,1.268.742,1.268H12.09c.8,0,1.134-.571.742-1.268h0L7.711,1.273A.867.867,0,0,0,7,.75Zm.75,9.747A.75.75,0,1,1,7,9.747.75.75,0,0,1,7.748,10.5ZM7,9a.75.75,0,0,1-.75-.75V6a.75.75,0,0,1,1.5,0V8.248A.75.75,0,0,1,7,9Z" transform="translate(-1 -0.75)" fill="#fff"/>
</svg>
